<svg xmlns="http://www.w3.org/2000/svg" viewBox="0 0 64 64" role="img" aria-label="Dashboard Financeiro">
  <defs>
    <linearGradient id="g" x1="0" y1="0" x2="1" y2="1">
      <stop offset="0%" stop-color="#0f172a"/>
      <stop offset="100%" stop-color="#1d4ed8"/>
    </linearGradient>
  </defs>
  <rect width="64" height="64" rx="16" fill="url(#g)"/>
  <circle cx="32" cy="32" r="18" fill="none" stroke="#ffffff" stroke-width="4" opacity="0.9"/>
  <path d="M34.5 18.5v3.1c4.1.5 7.2 2.8 7.2 6.6 0 2.6-1.4 4.4-3.7 5.5-2.1 1-4.7 1.5-7 2.1-2.2.6-3.8 1.2-3.8 2.7 0 1.6 1.7 2.6 4.7 2.6 3 0 5.4-1 7.2-2.3l2.7 3.6c-2 1.6-4.8 2.9-7.9 3.4v3h-4v-2.9c-4.4-.3-7.8-2.7-7.8-6.8 0-2.8 1.5-4.8 4-5.9 2.1-1 4.8-1.5 7.3-2.1 2-.5 3.5-1.1 3.5-2.4 0-1.5-1.5-2.6-4.3-2.6-2.7 0-5.1.8-7.1 2.1l-2.6-3.5c2-1.4 4.8-2.4 7.9-2.8v-3h4.1z" fill="#ffffff"/>
</svg>
